<svg width="19" height="19" viewBox="0 0 19 19" fill="none" xmlns="http://www.w3.org/2000/svg">
<path d="M18.9999 15.5375C18.9999 15.7264 18.9249 15.9077 18.7912 16.0413C18.6576 16.1749 18.4764 16.25 18.2874 16.25H13.4425C13.2838 16.8417 12.9343 17.3645 12.4482 17.7374C11.9621 18.1103 11.3666 18.3125 10.754 18.3125C10.1413 18.3125 9.5458 18.1103 9.05972 17.7374C8.57364 17.3645 8.22416 16.8417 8.06547 16.25H0.712498C0.523531 16.25 0.342305 16.1749 0.208686 16.0413C0.0750664 15.9077 0 15.7264 0 15.5375C0 15.3485 0.0750664 15.1673 0.208686 15.0337C0.342305 14.9 0.523531 14.825 0.712498 14.825H8.06547C8.22416 14.2332 8.57364 13.7104 9.05972 13.3375C9.5458 12.9646 10.1413 12.7625 10.754 12.7625C11.3666 12.7625 11.9621 12.9646 12.4482 13.3375C12.9343 13.7104 13.2838 14.2332 13.4425 14.825H18.2874C18.4764 14.825 18.6576 14.9 18.7912 15.0337C18.9249 15.1673 18.9999 15.3485 18.9999 15.5375ZM18.9999 2.988C18.9999 3.17697 18.9249 3.3582 18.7912 3.49182C18.6576 3.62544 18.4764 3.7005 18.2874 3.7005H15.9599C15.8013 4.29223 15.4518 4.81508 14.9657 5.18798C14.4796 5.56088 13.8841 5.763 13.2715 5.763C12.6588 5.763 12.0633 5.56088 11.5772 5.18798C11.0911 4.81508 10.7417 4.29223 10.583 3.7005H0.712498C0.618931 3.7005 0.526281 3.68207 0.439837 3.64627C0.353392 3.61046 0.274847 3.55798 0.208686 3.49182C0.142524 3.42565 0.0900419 3.34711 0.0542356 3.26067C0.0184292 3.17422 0 3.08157 0 2.988C0 2.89444 0.0184292 2.80179 0.0542356 2.71534C0.0900419 2.6289 0.142524 2.55035 0.208686 2.48419C0.274847 2.41803 0.353392 2.36555 0.439837 2.32974C0.526281 2.29394 0.618931 2.27551 0.712498 2.27551H10.583C10.7417 1.68378 11.0911 1.16093 11.5772 0.78803C12.0633 0.415131 12.6588 0.213013 13.2715 0.213013C13.8841 0.213013 14.4796 0.415131 14.9657 0.78803C15.4518 1.16093 15.8013 1.68378 15.9599 2.27551H18.2874C18.3814 2.27423 18.4746 2.29178 18.5616 2.32714C18.6486 2.36249 18.7277 2.41493 18.7941 2.48134C18.8605 2.54776 18.9129 2.62682 18.9483 2.71384C18.9837 2.80086 19.0012 2.89408 18.9999 2.988ZM18.9999 9.25798C19.0012 9.3519 18.9837 9.44513 18.9483 9.53215C18.9129 9.61917 18.8605 9.69822 18.7941 9.76464C18.7277 9.83106 18.6486 9.88349 18.5616 9.91885C18.4746 9.9542 18.3814 9.97176 18.2874 9.97048H7.17248C7.01379 10.5622 6.66431 11.0851 6.17823 11.458C5.69215 11.8309 5.09662 12.033 4.48398 12.033C3.87134 12.033 3.27582 11.8309 2.78974 11.458C2.30366 11.0851 1.95418 10.5622 1.79549 9.97048H0.712498C0.523531 9.97048 0.342305 9.89541 0.208686 9.76179C0.0750664 9.62818 0 9.44695 0 9.25798C0 9.06902 0.0750664 8.88779 0.208686 8.75417C0.342305 8.62055 0.523531 8.54549 0.712498 8.54549H1.79549C1.95418 7.95375 2.30366 7.43091 2.78974 7.05801C3.27582 6.68511 3.87134 6.48299 4.48398 6.48299C5.09662 6.48299 5.69215 6.68511 6.17823 7.05801C6.66431 7.43091 7.01379 7.95375 7.17248 8.54549H18.2874C18.4764 8.54549 18.6576 8.62055 18.7912 8.75417C18.9249 8.88779 18.9999 9.06902 18.9999 9.25798Z" fill="#212121"/>
</svg>
