<svg width="15" height="19" viewBox="0 0 15 19" fill="none" xmlns="http://www.w3.org/2000/svg">
<path fill-rule="evenodd" clip-rule="evenodd" d="M0.0623779 18.9779V2.41182C0.0623779 1.84237 0.265312 1.35505 0.671181 0.949868C1.07705 0.544689 1.56437 0.341755 2.13314 0.341064H12.4869C13.0564 0.341064 13.5441 0.543999 13.9499 0.949868C14.3558 1.35574 14.5584 1.84306 14.5577 2.41182V18.9779L7.31004 15.8718L0.0623779 18.9779ZM2.13314 15.82L7.31004 13.5939L12.4869 15.82V3.47039C12.4869 2.88576 12.013 2.41182 11.4284 2.41182H3.1917C2.60707 2.41182 2.13314 2.88576 2.13314 3.47039V15.82ZM8.36819 4.45953V5.51809V6.82611H9.67618L10.7347 6.82611V8.94324H9.67618H8.36819V10.2513L8.36819 11.3098H6.25107V10.2513V8.94324H4.94302L3.88445 8.94324V6.82611H4.94302H6.25107V5.51809L6.25107 4.45953L8.36819 4.45953Z" fill="#212121"/>
</svg>
