<svg width="18" height="29" viewBox="0 0 18 29" fill="none" xmlns="http://www.w3.org/2000/svg">
<path fill-rule="evenodd" clip-rule="evenodd" d="M17.4169 0.570312H0.150932V0.57033H2.42114e-06L4.64815e-08 27.7333L0 28.265H0.531688L2.1492 28.265H2.3289L2.47176 28.156L8.68738 23.4125L8.73081 23.4125H9.27619L15.4918 28.156L15.6347 28.265H15.8144H17.4319H17.9636V27.7333L17.9636 0.570339L17.4169 0.570339V0.570312ZM16.9002 1.35513H1.06338L1.06338 27.2016H1.96949L8.18512 22.4581L8.32797 22.3491H8.50768L9.23277 22.3491L9.4559 22.3491H9.6356L9.77846 22.4581L15.9941 27.2016H16.9002L16.9002 1.35513Z" fill="#212121"/>
</svg>
